<?xml version="1.0" encoding="UTF-8" standalone="no"?>
<!-- Created with Inkscape (http://www.inkscape.org/) -->

<svg
   xmlns:dc="http://purl.org/dc/elements/1.1/"
   xmlns:cc="http://creativecommons.org/ns#"
   xmlns:rdf="http://www.w3.org/1999/02/22-rdf-syntax-ns#"
   xmlns:svg="http://www.w3.org/2000/svg"
   xmlns="http://www.w3.org/2000/svg"
   xmlns:sodipodi="http://sodipodi.sourceforge.net/DTD/sodipodi-0.dtd"
   xmlns:inkscape="http://www.inkscape.org/namespaces/inkscape"
   width="2400"
   height="640"
   id="svg2"
   version="1.1"
   inkscape:version="0.48.5 r10040"
   sodipodi:docname="logo.png">
  <defs
     id="defs4" />
  <sodipodi:namedview
     id="base"
     pagecolor="#ffffff"
     bordercolor="#000000"
     borderopacity="1"
     inkscape:pageopacity="0.0"
     inkscape:pageshadow="2"
     inkscape:zoom="0.35355339"
     inkscape:cx="948.09708"
     inkscape:cy="189.05271"
     inkscape:document-units="px"
     inkscape:current-layer="layer1"
     showgrid="false"
     inkscape:window-width="1920"
     inkscape:window-height="1014"
     inkscape:window-x="0"
     inkscape:window-y="27"
     inkscape:window-maximized="1"
     inkscape:snap-bbox="true"
     inkscape:bbox-paths="false"
     inkscape:bbox-nodes="false"
     inkscape:snap-bbox-edge-midpoints="false">
    <inkscape:grid
       type="xygrid"
       id="grid2993"
       empspacing="5"
       visible="true"
       enabled="true"
       snapvisiblegridlinesonly="true" />
  </sodipodi:namedview>
  <metadata
     id="metadata7">
    <rdf:RDF>
      <cc:Work
         rdf:about="">
        <dc:format>image/svg+xml</dc:format>
        <dc:type
           rdf:resource="http://purl.org/dc/dcmitype/StillImage" />
        <dc:title></dc:title>
      </cc:Work>
    </rdf:RDF>
  </metadata>
  <g
     inkscape:label="Layer 1"
     inkscape:groupmode="layer"
     id="layer1"
     transform="translate(0,-412.36218)">
    <flowRoot
       xml:space="preserve"
       id="flowRoot2985"
       style="font-size:40px;font-style:normal;font-weight:normal;line-height:125%;letter-spacing:0px;word-spacing:0px;fill:#000000;fill-opacity:1;stroke:none;font-family:Sans"><flowRegion
         id="flowRegion2987"><rect
           id="rect2989"
           width="572.75647"
           height="147.98735"
           x="14.142136"
           y="25.748686" /></flowRegion><flowPara
         id="flowPara2991" /></flowRoot>    <g
       id="g4000"
       transform="matrix(3.9999088,0,0,3.9999088,-0.03674339,-3156.9958)">
      <rect
         ry="10.005734"
         y="892.35645"
         x="0.012249403"
         height="160.00746"
         width="599.99219"
         id="rect3834"
         style="fill:#314550;fill-opacity:1;fill-rule:evenodd;stroke:#000000;stroke-width:0;stroke-linecap:butt;stroke-linejoin:miter;stroke-miterlimit:4;stroke-opacity:1;stroke-dasharray:none" />
      <g
         transform="translate(-0.89227,39.778979)"
         id="g3912">
        <g
           transform="translate(-0.369375,846.13147)"
           style="font-size:109px;font-style:normal;font-variant:normal;font-weight:200;font-stretch:normal;text-align:justify;line-height:125%;letter-spacing:0px;word-spacing:0px;writing-mode:lr-tb;text-anchor:start;fill:#fff1d7;fill-opacity:1;stroke:none;font-family:Source Code Pro;-inkscape-font-specification:Source Code Pro Ultra-Light"
           id="flowRoot3836">
          <path
             d="m 32.032,64.570711 c 0,4.141996 2.834003,6.322 5.668,6.322 2.833997,0 5.668,-2.180004 5.668,-6.322 0,-4.141996 -2.834003,-6.322 -5.668,-6.322 -2.833997,0 -5.668,2.180004 -5.668,6.322 m 0,42.073999 c 0,4.142 2.834003,6.322 5.668,6.322 2.833997,0 5.668,-2.18 5.668,-6.322 0,-4.14199 -2.834003,-6.322 -5.668,-6.322 -2.833997,0 -5.668,2.18001 -5.668,6.322"
             id="path3858"
             inkscape:connector-curvature="0" />
          <path
             d="m 82.347422,111.65871 3.27,0 0,-37.713999 c 8.065992,-8.501991 13.516008,-12.644 21.363998,-12.644 11.00899,0 15.696,5.995013 15.696,18.312 l 0,32.045999 3.27,0 0,-32.481999 c 0,-14.278986 -6.21301,-20.928 -18.966,-20.928 -8.50199,0 -14.715004,5.014007 -20.927998,11.772 l -0.436,0 -0.436,-10.464 -2.834,0 0,52.101999"
             id="path3860"
             inkscape:connector-curvature="0" />
          <path
             d="m 144.43484,85.716711 c 0,17.003979 12.42602,27.249999 27.25,27.249999 9.48299,0 15.04201,-3.161 19.62,-6.104 l -1.526,-2.834 c -4.90499,3.488 -10.682,5.886 -17.876,5.886 -14.38798,0 -23.98,-10.246013 -23.98,-24.197999 l 45.344,0 c 0.218,-1.307998 0.218,-2.398001 0.218,-3.488 0,-15.041985 -9.15601,-23.98 -23.108,-23.98 -13.18898,0 -25.942,10.464017 -25.942,27.468 m 3.488,-3.052 c 1.526,-13.079987 11.44501,-21.364 22.454,-21.364 11.77199,0 19.838,7.194014 19.838,21.364 l -42.292,0"
             id="path3862"
             inkscape:connector-curvature="0" />
          <path
             d="m 226.36027,92.474711 c 0,12.207989 4.14201,20.491999 17.985,20.491999 4.79599,0 11.118,-1.308 15.805,-3.27 l -1.09,-2.616 c -4.251,1.744 -8.72001,2.834 -14.497,2.834 -12.09899,0 -14.933,-6.54001 -14.933,-17.003999 l 0,-30.302 28.558,0 0,-3.052 -28.558,0 0,-15.26 -2.834,0 -0.436,15.26 -16.132,0.436 0,2.616 16.132,0 0,29.866"
             id="path3864"
             inkscape:connector-curvature="0" />
          <path
             d="m 276.89369,98.905711 c 0,9.918989 9.15601,14.060999 18.312,14.060999 7.84799,0 16.132,-4.469 22.236,-9.374 l 0.218,0 0.436,8.066 2.834,0 0,-33.789999 c 0,-10.463989 -5.34102,-19.62 -19.184,-19.62 -9.37399,0 -18.53001,5.014003 -22.236,7.848 l 1.744,2.616 c 4.03299,-3.051997 11.99001,-7.412 20.274,-7.412 12.64398,0 16.132,8.720009 16.132,17.876 -28.77597,2.615998 -40.766,8.066012 -40.766,19.729 m 3.488,-0.109 c 0,-8.937991 9.15603,-14.170002 37.278,-16.786 l 0,17.876 c -7.84799,6.648989 -15.26001,10.027999 -22.236,10.027999 -7.412,0 -15.042,-3.05201 -15.042,-11.117999 m 20.71,-49.922 c 8.71999,0 11.99,-7.412005 12.644,-12.644 l -2.834,0 c -0.654,4.795995 -3.70601,9.81 -9.81,9.81 -6.104,0 -9.156,-5.014005 -9.81,-9.81 l -2.834,0 c 0.654,5.231995 3.92401,12.644 12.644,12.644"
             id="path3866"
             inkscape:connector-curvature="0" />
          <path
             d="m 357.07511,92.474711 c 0,12.207989 4.14201,20.491999 17.985,20.491999 4.79599,0 11.118,-1.308 15.805,-3.27 l -1.09,-2.616 c -4.251,1.744 -8.72001,2.834 -14.497,2.834 -12.09899,0 -14.933,-6.54001 -14.933,-17.003999 l 0,-30.302 28.558,0 0,-3.052 -28.558,0 0,-15.26 -2.834,0 -0.436,15.26 -16.132,0.436 0,2.616 16.132,0 0,29.866 m 14.388,24.851999 -1.09,2.834 c 3.052,0.654 6.322,1.962 6.322,5.45 0,3.052 -4.14201,4.796 -10.246,5.668 l 0.654,2.834 c 6.53999,-0.872 12.862,-3.488 12.862,-8.938 0,-4.35999 -3.05201,-6.54 -8.502,-7.848"
             id="path3868"
             inkscape:connector-curvature="0" />
          <path
             d="m 405.86453,85.716711 c 0,17.003979 12.42602,27.249999 27.25,27.249999 9.48299,0 15.04201,-3.161 19.62,-6.104 l -1.526,-2.834 c -4.90499,3.488 -10.68201,5.886 -17.876,5.886 -14.38798,0 -23.98,-10.246013 -23.98,-24.197999 l 45.344,0 c 0.218,-1.307998 0.218,-2.398001 0.218,-3.488 0,-15.041985 -9.15601,-23.98 -23.108,-23.98 -13.18899,0 -25.942,10.464017 -25.942,27.468 m 3.488,-3.052 c 1.526,-13.079987 11.44501,-21.364 22.454,-21.364 11.77199,0 19.838,7.194014 19.838,21.364 l -42.292,0"
             id="path3870"
             inkscape:connector-curvature="0" />
          <path
             d="m 474.49195,111.65871 3.27,0 0,-37.713999 c 8.066,-8.501991 13.51601,-12.644 21.364,-12.644 11.00899,0 15.696,5.995013 15.696,18.312 l 0,32.045999 3.27,0 0,-32.481999 c 0,-14.278986 -6.21301,-20.928 -18.966,-20.928 -8.50199,0 -14.715,5.014007 -20.928,11.772 l -0.436,0 -0.436,-10.464 -2.834,0 0,52.101999"
             id="path3872"
             inkscape:connector-curvature="0" />
          <path
             d="m 538.75937,62.608711 26.81401,0 0,49.049999 3.27,0 0,-52.101999 -30.08401,0 0,3.052 m 27.25,-16.35 c 2.398,0 4.36,-1.744003 4.36,-4.578 0,-2.833997 -1.962,-4.578 -4.36,-4.578 -2.39799,0 -4.36,1.744003 -4.36,4.578 0,2.833997 1.96201,4.578 4.36,4.578"
             id="path3874"
             inkscape:connector-curvature="0" />
        </g>
        <path
           style="fill:#ff9841;fill-opacity:1;fill-rule:nonzero;stroke:#ff9841;stroke-width:0.67500001;stroke-linejoin:round;stroke-miterlimit:4;stroke-opacity:1;stroke-dasharray:none"
           d="m 36.357617,64.490519 c -1.046938,-0.175534 -2.162101,-0.798129 -2.945838,-1.644658 -1.10168,-1.189946 -1.5368,-2.276912 -1.638986,-4.094326 -0.116911,-2.079309 0.4559,-3.746076 1.722783,-5.012959 1.210449,-1.210449 2.434935,-1.67893 4.152633,-1.588774 1.358499,0.0713 2.586084,0.628605 3.56061,1.616456 1.160866,1.17674 1.679634,2.597392 1.683496,4.610277 0.0034,1.773957 -0.431823,3.073752 -1.430486,4.272113 -1.196571,1.435844 -3.204453,2.160394 -5.104212,1.841871 z"
           id="path3027"
           inkscape:connector-curvature="0"
           transform="translate(0,852.36218)" />
        <path
           style="fill:#ff9841;fill-opacity:1;fill-rule:nonzero;stroke:#ff9841;stroke-width:0.11932427;stroke-linejoin:round;stroke-miterlimit:4;stroke-opacity:1;stroke-dasharray:none"
           d="m 36.914334,106.7082 c -1.088415,-0.08 -2.188699,-0.5166 -3.043787,-1.20767 -1.4723,-1.1899 -2.243891,-3.06365 -2.186437,-5.3096 0.04031,-1.575786 0.46194,-2.857462 1.304538,-3.965556 0.184837,-0.243077 0.622085,-0.688771 0.877473,-0.894421 0.676747,-0.544948 1.447038,-0.913235 2.310081,-1.104484 0.685702,-0.151949 1.564833,-0.153117 2.287961,-0.003 1.064642,0.220957 2.075056,0.779786 2.826836,1.563436 0.827908,0.863005 1.37319,1.992695 1.587136,3.288155 0.0794,0.480795 0.100469,0.763881 0.100303,1.34792 -1.55e-4,0.55561 -0.01801,0.80781 -0.08996,1.27059 -0.167297,1.07617 -0.564982,2.04046 -1.182035,2.86616 -0.206554,0.27639 -0.763364,0.83379 -1.037553,1.03866 -0.878266,0.65619 -1.866203,1.0281 -2.948016,1.10978 -0.339144,0.0256 -0.459266,0.0256 -0.806544,6e-5 l 0,1e-5 z"
           id="path3797"
           inkscape:connector-curvature="0"
           transform="translate(0,852.36218)" />
        <path
           style="fill:#ff9841;fill-opacity:1;fill-rule:nonzero;stroke:#ff9841;stroke-width:0.4772971;stroke-linejoin:round;stroke-miterlimit:4;stroke-opacity:1;stroke-dasharray:none"
           d="m 298.45719,42.399487 c -5.24199,-0.888455 -8.94098,-5.019148 -10.15776,-11.343261 -0.10102,-0.525064 -0.18368,-0.97253 -0.18368,-0.994369 0,-0.02184 0.61575,-0.03971 1.36834,-0.03971 1.34828,0 1.36892,0.0029 1.40818,0.198874 0.65312,3.259469 1.60628,5.265891 3.31166,6.971146 1.68862,1.688503 3.58354,2.50801 6.05121,2.617009 2.24114,0.09899 4.20429,-0.444231 5.85471,-1.620058 0.67152,-0.47842 1.82971,-1.677334 2.32516,-2.406912 0.52542,-0.773712 1.18095,-2.120369 1.50242,-3.086397 0.21682,-0.651575 0.62896,-2.369199 0.62896,-2.621255 0,-0.02882 0.61788,-0.05241 1.37307,-0.05241 l 1.37306,0 -0.0583,0.464039 c -0.0949,0.756012 -0.60805,2.696213 -0.96425,3.646019 -1.56051,4.161125 -4.31182,6.913825 -7.95499,7.959023 -1.72415,0.494646 -4.05643,0.61696 -5.87782,0.308256 l 0,0 z"
           id="path3799"
           inkscape:connector-curvature="0"
           transform="translate(0,852.36218)" />
      </g>
    </g>
  </g>
</svg>
